<svg width="112" height="66" viewBox="0 0 112 66" fill="none" xmlns="http://www.w3.org/2000/svg">
<path d="M101.531 0.469482H10.4688C7.90072 0.473581 5.43905 1.49554 3.62318 3.31141C1.80731 5.12729 0.785349 7.58895 0.78125 10.157V55.8432C0.785349 58.4113 1.80731 60.8729 3.62318 62.6888C5.43905 64.5047 7.90072 65.5266 10.4688 65.5307H101.531C104.099 65.5266 106.561 64.5047 108.377 62.6888C110.193 60.8729 111.215 58.4113 111.219 55.8432V10.157C111.215 7.58895 110.193 5.12729 108.377 3.31141C106.561 1.49554 104.099 0.473581 101.531 0.469482ZM107.344 55.8432C107.339 57.3834 106.725 58.8591 105.636 59.9482C104.547 61.0373 103.071 61.6511 101.531 61.6557H10.4688C8.92859 61.6511 7.45283 61.0373 6.36377 59.9482C5.27471 58.8591 4.66085 57.3834 4.65625 55.8432V24.0876H107.344V55.8432ZM107.344 20.2126H4.65625V16.1826H107.344V20.2126ZM107.344 12.3076H4.65625V10.157C4.66085 8.61682 5.27471 7.14107 6.36377 6.05201C7.45283 4.96295 8.92859 4.34908 10.4688 4.34448H101.531C103.071 4.34908 104.547 4.96295 105.636 6.05201C106.725 7.14107 107.339 8.61682 107.344 10.157V12.3076Z" fill="#027997"/>
<path d="M87.5812 30.0745C85.0895 30.0705 82.6609 30.8574 80.645 32.322C78.6506 30.8585 76.2406 30.071 73.7669 30.0745C71.8977 30.0616 70.0521 30.4922 68.3816 31.331C66.7111 32.1698 65.2634 33.3929 64.1574 34.8998C63.0513 36.4067 62.3185 38.1545 62.0191 39.9996C61.7196 41.8447 61.8621 43.7345 62.4348 45.5139C63.0075 47.2933 63.994 48.9114 65.3135 50.2355C66.6329 51.5595 68.2476 52.5518 70.025 53.1307C71.8023 53.7096 73.6916 53.8586 75.5378 53.5656C77.3839 53.2726 79.1342 52.5459 80.645 51.4451C82.1533 52.5383 83.8987 53.2592 85.7389 53.5489C87.579 53.8386 89.4615 53.6889 91.2327 53.112C93.0039 52.5351 94.6135 51.5474 95.93 50.2295C97.2465 48.9116 98.2326 47.301 98.8076 45.5292C99.3827 43.7574 99.5305 41.8747 99.2389 40.0349C98.9473 38.1951 98.2245 36.4503 97.1298 34.9432C96.035 33.4361 94.5992 32.2093 92.9397 31.3632C91.2802 30.517 89.444 30.0754 87.5812 30.0745ZM73.7669 49.8176C72.1949 49.8215 70.6572 49.3588 69.3483 48.4883C68.0394 47.6178 67.0182 46.3785 66.414 44.9273C65.8098 43.4761 65.6497 41.8783 65.954 40.336C66.2584 38.7938 67.0134 37.3766 68.1236 36.2637C69.2337 35.1508 70.6491 34.3923 72.1906 34.0842C73.7321 33.7761 75.3303 33.9323 76.783 34.533C78.2356 35.1336 79.4774 36.1518 80.3511 37.4586C81.2249 38.7653 81.6912 40.3019 81.6912 41.8739C81.6882 43.9764 80.8529 45.9922 79.368 47.4807C77.8832 48.9693 75.8694 49.8094 73.7669 49.8176ZM87.5812 49.8176C86.1162 49.8166 84.6804 49.4073 83.435 48.6358C84.822 46.6573 85.5661 44.2997 85.5661 41.8836C85.5661 39.4674 84.822 37.1098 83.435 35.1314C84.4792 34.4908 85.6576 34.101 86.8777 33.9924C88.0979 33.8837 89.3267 34.0594 90.4675 34.5054C91.6084 34.9515 92.6305 35.6558 93.4534 36.5632C94.2764 37.4706 94.8778 38.5563 95.2107 39.7353C95.5435 40.9142 95.5986 42.1542 95.3717 43.358C95.1448 44.5618 94.642 45.6966 93.9029 46.6734C93.1637 47.6503 92.2082 48.4425 91.1114 48.9881C90.0145 49.5336 88.8062 49.8175 87.5812 49.8176Z" fill="#027997"/>
<path d="M14.5588 41.8428H30.3456C30.8594 41.8428 31.3522 41.6386 31.7156 41.2753C32.0789 40.9119 32.2831 40.4191 32.2831 39.9053C32.2831 39.3914 32.0789 38.8986 31.7156 38.5353C31.3522 38.1719 30.8594 37.9678 30.3456 37.9678H14.5588C14.045 37.9678 13.5521 38.1719 13.1888 38.5353C12.8254 38.8986 12.6213 39.3914 12.6213 39.9053C12.6213 40.4191 12.8254 40.9119 13.1888 41.2753C13.5521 41.6386 14.045 41.8428 14.5588 41.8428Z" fill="#027997"/>
<path d="M34.3 45.8633H14.5588C14.045 45.8633 13.5521 46.0674 13.1888 46.4308C12.8254 46.7941 12.6213 47.2869 12.6213 47.8008C12.6213 48.3146 12.8254 48.8075 13.1888 49.1708C13.5521 49.5342 14.045 49.7383 14.5588 49.7383H34.3C34.8139 49.7383 35.3067 49.5342 35.67 49.1708C36.0334 48.8075 36.2375 48.3146 36.2375 47.8008C36.2375 47.2869 36.0334 46.7941 35.67 46.4308C35.3067 46.0674 34.8139 45.8633 34.3 45.8633Z" fill="#027997"/>
</svg>
