<svg width="800" height="800" viewBox="0 0 800 800" fill="none" xmlns="http://www.w3.org/2000/svg">
<path opacity="0.1" d="M700 400C700 565.687 565.687 700 400 700C234.315 700 100 565.687 100 400C100 234.315 234.315 100 400 100C565.687 100 700 234.315 700 400Z" fill="white"/>
<path d="M700 400C700 565.687 565.687 700 400 700C234.315 700 100 565.687 100 400C100 234.315 234.315 100 400 100C565.687 100 700 234.315 700 400Z" stroke="white" stroke-width="66.6667"/>
<path d="M533.333 400H266.667" stroke="white" stroke-width="66.6667" stroke-linecap="round" stroke-linejoin="round"/>
<path d="M433.333 500L530.433 402.9C532.033 401.3 532.033 398.7 530.433 397.1L433.333 300" stroke="white" stroke-width="66.6667" stroke-linecap="round" stroke-linejoin="round"/>
</svg>
