<svg width="100" height="100" viewBox="0 0 100 100" fill="none" xmlns="http://www.w3.org/2000/svg">
<g clip-path="url(#clip0_19_12)">
<path d="M70.3125 6.25C71.5557 6.25 72.748 6.74386 73.6271 7.62294C74.5061 8.50201 75 9.6943 75 10.9375C75 12.1807 74.5061 13.373 73.6271 14.2521C72.748 15.1311 71.5557 15.625 70.3125 15.625H14.0625C12.8193 15.625 11.627 16.1189 10.7479 16.9979C9.86886 17.877 9.375 19.0693 9.375 20.3125V61.1313L13.7875 57.9437C14.7953 57.2559 16.0317 56.9881 17.2338 57.1973C18.436 57.4066 19.5092 58.0763 20.2253 59.0643C20.9415 60.0523 21.2441 61.2805 21.069 62.4881C20.8939 63.6957 20.2548 64.7874 19.2875 65.5312L7.4375 74.1125C6.7376 74.6195 5.91114 74.9232 5.04945 74.9899C4.18777 75.0567 3.32441 74.8839 2.55478 74.4907C1.78516 74.0974 1.13922 73.4991 0.688365 72.7617C0.237507 72.0244 -0.000722957 71.1768 1.64806e-06 70.3125V20.3125C1.64806e-06 16.5829 1.48158 13.006 4.11881 10.3688C6.75604 7.73158 10.3329 6.25 14.0625 6.25H70.3125Z" fill="#027997"/>
<path fill-rule="evenodd" clip-rule="evenodd" d="M39.0625 25C35.3329 25 31.756 26.4816 29.1188 29.1188C26.4816 31.756 25 35.3329 25 39.0625V67.4C25 71.1296 26.4816 74.7065 29.1188 77.3437C31.756 79.9809 35.3329 81.4625 39.0625 81.4625H76.8187L92.5687 92.8625C93.2686 93.3678 94.0945 93.67 94.9552 93.7358C95.8159 93.8016 96.6781 93.6284 97.4466 93.2354C98.2152 92.8424 98.8603 92.2448 99.3109 91.5085C99.7614 90.7721 99.9999 89.9257 100 89.0625V39.0625C100 35.3329 98.5184 31.756 95.8812 29.1188C93.2439 26.4816 89.6671 25 85.9375 25H39.0625ZM34.375 39.0625C34.375 37.8193 34.8689 36.627 35.7479 35.7479C36.627 34.8689 37.8193 34.375 39.0625 34.375H85.9375C87.1807 34.375 88.373 34.8689 89.2521 35.7479C90.1311 36.627 90.625 37.8193 90.625 39.0625V79.8812L81.0875 72.9812C80.2879 72.401 79.3254 72.0882 78.3375 72.0875H39.0625C37.8193 72.0875 36.627 71.5936 35.7479 70.7146C34.8689 69.8355 34.375 68.6432 34.375 67.4V39.0625Z" fill="#027997"/>
</g>
<defs>
<clipPath id="clip0_19_12">
<rect width="100" height="100" fill="white"/>
</clipPath>
</defs>
</svg>
