<svg width="81" height="81" viewBox="0 0 81 81" fill="none" xmlns="http://www.w3.org/2000/svg">
<path d="M7.86664 2.3999C7.59998 3.33323 7.46664 11.3332 7.59998 20.1332L7.99998 35.9999L34.2666 36.3999L60.5333 36.6666L63.3333 40.6666C66.9333 45.7332 68.1333 45.7332 69.0666 40.7999C69.7333 37.3332 70.5333 36.7999 74.9333 36.3999L80 35.9999V18.6666V1.33323L44.2666 0.933229C15.6 0.666563 8.39998 0.933229 7.86664 2.3999ZM78 18.6666V33.9999H72.6666C68.2666 33.9999 67.3333 34.3999 67.3333 36.6666C67.3333 38.1332 66.9333 39.3332 66.2666 39.3332C65.7333 39.3332 64.5333 38.1332 63.6 36.6666C62.1333 34.1332 60.5333 33.9999 36 33.9999H9.99998V18.6666V3.33323H44H78V18.6666Z" fill="#027997"/>
<path d="M58.2667 10.6666C57.3333 12.5333 55.6 14 54.1333 14C50.6667 14 49.6 16 52 18C53.0667 18.9333 54 21.7333 54 24.2667C54 28.2667 54.4 28.8 56.4 28C57.6 27.3333 59.6 26.9333 60.6667 26.9333C61.7333 26.9333 63.7333 27.3333 65.0667 28C66.9333 28.8 67.3333 28.2667 67.3333 24.2667C67.3333 21.7333 68.2667 18.9333 69.3333 18C71.7333 16 70.6667 14 67.2 14C65.7333 14 64 12.5333 63.0667 10.6666C62.2667 8.79998 61.2 7.33332 60.6667 7.33332C60.1333 7.33332 59.0667 8.79998 58.2667 10.6666ZM63.0667 15.0666C66.4 18.4 65.0667 24 60.6667 24C56.5333 24 54.9333 18.5333 58 15.0666C60.5333 12.2666 60.2667 12.2666 63.0667 15.0666Z" fill="#027997"/>
<path d="M32.6667 11.9999C32.6667 13.5999 30.9333 13.9999 24.6667 13.9999H16.6667V19.3333V24.6666H24.6667C30.9333 24.6666 32.6667 25.0666 32.6667 26.6666C32.6667 29.5999 34 29.0666 40 23.9999L45.3333 19.3333L40 14.6666C34 9.59992 32.6667 9.06659 32.6667 11.9999ZM39.3333 17.4666C42.4 21.0666 38.4 22.7999 28.4 22.2666C20.6667 21.8666 19.3333 21.4666 19.3333 19.3333C19.3333 17.1999 20.5333 16.6666 27.7333 16.2666C32.2667 15.9999 36.4 15.7333 36.8 15.5999C37.3333 15.4666 38.4 16.2666 39.3333 17.4666Z" fill="#027997"/>
<path d="M64.5333 50.1333C62.4 52.2666 62 53.8666 62.5333 57.3333C63.2 60.2666 62.8 62.1333 61.3333 63.3333C60 64.5333 59.3333 67.4666 59.3333 72.8V80.6666H70H80.6667V72.8C80.6667 67.4666 80 64.5333 78.6667 63.3333C77.2 62.1333 76.8 60.2666 77.4667 57.3333C78.4 52.2666 74.6667 47.3333 70 47.3333C68.5333 47.3333 66.1333 48.5333 64.5333 50.1333ZM71.7333 50.9333C70.8 51.2 69.2 51.2 68.4 50.9333C67.4667 50.5333 68.1333 50.2666 70 50.2666C71.8667 50.2666 72.5333 50.5333 71.7333 50.9333ZM73.8667 55.2C75.4667 56.2666 75.4667 56.8 74.1333 58.5333C73.0667 59.7333 71.3333 60.6666 70 60.6666C68.6667 60.6666 66.9333 59.7333 65.8667 58.5333C64.5333 56.8 64.5333 56.2666 66.1333 55.2C67.2 54.5333 68.9333 54 70 54C71.0667 54 72.8 54.5333 73.8667 55.2ZM77.7333 70.9333L78.1333 78H70.1333H62V71.6C62 68 62.4 64.6666 62.9333 64.1333C63.4667 63.6 66.9333 63.3333 70.6667 63.6L77.3333 64L77.7333 70.9333Z" fill="#027997"/>
<path d="M5.33332 56.2666C3.86666 57.7333 3.33332 59.7333 3.86666 62.1333C4.26666 64.4 3.86666 66.4 2.66666 67.3333C1.46666 68.4 0.666656 71.3333 0.666656 74.8V80.6666H9.99999H19.3333V74.8C19.3333 71.3333 18.5333 68.4 17.3333 67.3333C16.1333 66.4 15.7333 64.4 16.1333 62.1333C17.0667 58 14 54 9.99999 54C8.66666 54 6.53332 54.9333 5.33332 56.2666ZM11.7333 57.6C10.8 57.8666 9.19999 57.8666 8.39999 57.6C7.46666 57.2 8.13332 56.9333 9.99999 56.9333C11.8667 56.9333 12.5333 57.2 11.7333 57.6ZM13.3333 62C14.4 63.7333 10.6667 65.2 7.86666 64.1333C5.19999 63.0666 6.66666 60.6666 9.99999 60.6666C11.3333 60.6666 12.9333 61.3333 13.3333 62ZM16.4 72.9333L16.8 78H10.1333H3.33332V73.6C3.33332 67.7333 4.13332 67.0666 10.6667 67.6C15.7333 68 16 68.1333 16.4 72.9333Z" fill="#027997"/>
<path d="M34.6667 56.2666C33.2 57.7333 32.6667 59.7333 33.2 62.1333C33.6 64.4 33.2 66.4 32 67.3333C30.8 68.4 30 71.3333 30 74.8V80.6666H39.3333H48.6667V74.8C48.6667 71.3333 47.8667 68.4 46.6667 67.3333C45.4667 66.4 45.0667 64.4 45.4667 62.1333C46.4 58 43.3333 54 39.3333 54C38 54 35.8667 54.9333 34.6667 56.2666ZM41.0667 57.6C40.1333 57.8666 38.5333 57.8666 37.7333 57.6C36.8 57.2 37.4667 56.9333 39.3333 56.9333C41.2 56.9333 41.8667 57.2 41.0667 57.6ZM42.6667 62C43.7333 63.7333 40 65.2 37.2 64.1333C34.5333 63.0666 36 60.6666 39.3333 60.6666C40.6667 60.6666 42.2667 61.3333 42.6667 62ZM45.7333 72.9333L46.1333 78H39.4667H32.6667V73.6C32.6667 67.7333 33.4667 67.0666 40 67.6C45.0667 68 45.3333 68.1333 45.7333 72.9333Z" fill="#027997"/>
<path d="M22 73.9999C22 74.6666 23.2 75.3333 24.6667 75.3333C26.1333 75.3333 27.3333 74.6666 27.3333 73.9999C27.3333 73.1999 26.1333 72.6666 24.6667 72.6666C23.2 72.6666 22 73.1999 22 73.9999Z" fill="#027997"/>
<path d="M51.3333 73.9999C51.3333 74.6666 52.5333 75.3333 54 75.3333C55.4667 75.3333 56.6667 74.6666 56.6667 73.9999C56.6667 73.1999 55.4667 72.6666 54 72.6666C52.5333 72.6666 51.3333 73.1999 51.3333 73.9999Z" fill="#027997"/>
</svg>
