<svg width="62" height="59" viewBox="0 0 62 59" fill="none" xmlns="http://www.w3.org/2000/svg">
<path d="M18.1333 1.86678C17.2 3.06678 16.6667 7.06678 16.9333 12.2668L17.3333 20.6668L22.9333 21.0668C27.0667 21.3334 28.8 22.1334 29.3333 24.1334C30.4 27.3334 32.2667 27.3334 33.3333 24.1334C33.8667 22.1334 35.6 21.3334 39.7333 21.0668L45.3333 20.6668V10.6668V0.666779L32.5333 0.266779C22.6667 0.000112548 19.3333 0.400113 18.1333 1.86678ZM43.3333 10.6668V18.6668H38.1333C35.2 18.6668 32.5333 19.4668 32.1333 20.2668C31.4667 21.6001 31.2 21.6001 30.5333 20.2668C30.1333 19.4668 27.4667 18.6668 24.5333 18.6668H19.3333V10.6668V2.66678H31.3333H43.3333V10.6668Z" fill="#027997"/>
<path d="M10.2667 28.8001C8.13334 30.2667 7.33334 32.1334 7.33334 36.0001C7.33334 38.8001 8.00001 41.6001 8.66667 42.0001C10.6667 43.2001 10.2667 49.3334 8.26667 49.3334C5.86667 49.3334 0.666672 54.4001 0.666672 56.6667C0.666672 58.4001 5.33334 58.6667 31.4667 58.6667C60 58.6667 62.1333 58.5334 61.7333 56.4001C61.4667 55.0667 59.0667 52.5334 56.2667 50.8001C51.3333 47.6001 50.1333 44.4001 52.8 41.7334C53.6 40.9334 54 38.1334 53.7333 35.4667C53.4667 31.7334 52.4 29.8667 49.6 28.2667C46.2667 26.2667 45.6 26.2667 42.2667 28.0001C39.4667 29.6001 38.5333 31.2001 38.2667 35.2001C38 38.0001 38.4 40.9334 39.2 41.7334C41.2 43.7334 41.0667 49.3334 38.9333 49.3334C38 49.3334 35.8667 50.5334 34.4 52.0001C31.4667 54.6667 31.4667 54.6667 26.1333 51.0667C20.9333 47.7334 19.2 43.7334 22 42.0001C22.6667 41.6001 23.3333 38.9334 23.3333 36.1334C23.3333 32.1334 22.5333 30.5334 20 28.8001C16 26.1334 14 26.1334 10.2667 28.8001ZM18.1333 30.6667C21.2 32.4001 21.4667 37.3334 18.6667 42.6667C16.2667 47.3334 17.2 50.4001 21.4667 51.4667C23.2 51.8667 25.2 53.0667 26.1333 54.1334C27.4667 55.7334 25.8667 56.0001 16.1333 56.0001C4.26667 56.0001 1.86667 54.8001 8.53334 52.0001C13.6 50.0001 14.5333 47.4667 12 42.6667C9.60001 38.0001 9.46667 33.0667 11.6 30.9334C13.6 28.9334 14.8 28.9334 18.1333 30.6667ZM48.8 30.6667C51.8667 32.4001 52.1333 37.3334 49.3333 42.6667C46.9333 47.3334 47.8667 50.4001 52.1333 51.4667C53.8667 51.8667 55.8667 53.0667 56.8 54.1334C58.1333 55.7334 56.5333 56.0001 46.8 56.0001C34.9333 56.0001 32.5333 54.8001 39.2 52.0001C44.2667 50.0001 45.2 47.4667 42.6667 42.6667C40.2667 38.0001 40.1333 33.0667 42.2667 30.9334C44.2667 28.9334 45.4667 28.9334 48.8 30.6667Z" fill="#027997"/>
</svg>
