<svg width="60" height="60" viewBox="0 0 60 60" fill="none" xmlns="http://www.w3.org/2000/svg">
<path d="M30.0001 6C16.7461 6 6.00006 16.746 6.00006 30C6.00006 34.5024 7.26474 38.7001 9.42194 42.3008L6.2149 54L18.1641 50.8633C21.6588 52.8501 25.693 54 30.0001 54C43.2541 54 54.0001 43.254 54.0001 30C54.0001 16.746 43.2541 6 30.0001 6ZM21.7852 18.8047C22.1752 18.8047 22.5759 18.8023 22.9219 18.8203C23.3499 18.8303 23.8158 18.8617 24.2618 19.8477C24.7918 21.0197 25.9458 23.9598 26.0938 24.2578C26.2418 24.5558 26.3467 24.9069 26.1407 25.2969C25.9447 25.6969 25.8427 25.939 25.5547 26.293C25.2567 26.637 24.9302 27.0642 24.6602 27.3242C24.3622 27.6222 24.0545 27.949 24.3985 28.543C24.7425 29.137 25.9372 31.0842 27.7032 32.6562C29.9732 34.6842 31.8884 35.3075 32.4844 35.6055C33.0804 35.9035 33.4256 35.857 33.7696 35.457C34.1236 35.067 35.2563 33.7288 35.6563 33.1328C36.0463 32.5368 36.4444 32.6399 36.9844 32.8359C37.5324 33.0319 40.4548 34.4715 41.0508 34.7695C41.6468 35.0675 42.0376 35.215 42.1876 35.457C42.3416 35.707 42.3417 36.8972 41.8477 38.2852C41.3537 39.6712 38.9279 41.0115 37.8399 41.1055C36.7419 41.2075 35.7172 41.599 30.7032 39.625C24.6552 37.243 20.841 31.0484 20.543 30.6484C20.245 30.2584 18.1212 27.4278 18.1212 24.5078C18.1212 21.5778 19.6574 20.1429 20.1954 19.5469C20.7434 18.9509 21.3852 18.8047 21.7852 18.8047Z" fill="#0D9F16"/>
</svg>
