<svg width="100" height="100" viewBox="0 0 100 100" fill="none" xmlns="http://www.w3.org/2000/svg">
<path d="M38.2812 2.96872C24.5312 6.56247 12.0312 17.3437 5.93749 30.4687C0.937488 41.4062 1.09374 58.5937 5.93749 69.6875C15.7812 91.5625 42.9687 103.594 64.6875 95.7812C68.9062 94.2187 72.6562 92.1875 72.9687 91.25C73.2812 90.1562 70 90.7812 64.5312 92.6562C42.3437 100.156 19.8437 90.9375 9.53124 70C-1.71876 47.6562 7.03124 20.625 29.0625 9.37497C39.6875 3.90622 60 3.74997 69.8437 9.06247C89.6875 19.5312 99.375 41.7187 93.125 62.8125C90.625 71.7187 87.0312 76.5625 85.1562 73.4375C82.6562 69.5312 80 72.1875 79.0625 79.8437C78.4375 84.2187 78.2812 88.2812 78.75 88.5937C79.8437 89.8437 95.3125 84.375 95.3125 82.8125C95.3125 82.0312 94.0625 80.7812 92.6562 80C90.3125 78.5937 90.4687 77.8125 93.75 70.1562C98.9062 58.5937 99.0625 41.5625 94.0625 30.3125C89.5312 20.3125 79.6875 10.625 69.6875 6.09372C61.4062 2.49997 45.9375 0.937469 38.2812 2.96872ZM89.0625 81.5625C89.0625 82.8125 82.8125 85 82.0312 84.0625C81.7187 83.75 81.7187 81.875 82.1875 80.1562C82.9687 77.1875 83.5937 77.0312 86.0937 78.5937C87.6562 79.5312 89.0625 80.9375 89.0625 81.5625Z" fill="#027997"/>
<path d="M47.5 17.9688C46.875 19.2187 45.7812 20.3125 44.6875 20.3125C43.75 20.3125 42.0312 20.9375 40.7812 21.7187C38.75 22.9687 38.75 23.5937 40.7812 25.9375C42.0312 27.3437 42.9688 30.1562 42.9688 31.875C42.9688 34.0625 43.75 35 45.3125 34.5312C48.2812 33.75 51.7188 33.75 54.6875 34.5312C56.25 35 57.0312 34.0625 57.0312 31.875C57.0312 30.1562 57.9688 27.3437 59.2188 25.9375C61.25 23.5937 61.25 22.9687 59.2188 21.7187C57.9688 20.9375 56.25 20.3125 55.3125 20.3125C54.2188 20.3125 53.125 19.2187 52.5 17.9688C52.0312 16.7188 50.9375 15.625 50 15.625C49.0625 15.625 47.9688 16.7188 47.5 17.9688ZM52.8125 23.125C55.4688 25 53.4375 29.6875 50 29.6875C46.5625 29.6875 44.5312 25 47.1875 23.125C48.2812 22.5 49.5312 21.875 50 21.875C50.4688 21.875 51.7188 22.5 52.8125 23.125Z" fill="#027997"/>
<path d="M23.9062 29.0625C23.4375 30.7813 22.1875 32.5 21.25 33.2813C20.1562 34.0625 20.4687 35.1563 22.3437 36.5625C23.75 37.6563 25 39.5313 25 40.4688C25 41.5625 25.9375 42.0313 27.0312 41.5625C27.9687 41.0938 30 40.1563 31.5625 39.6875C33.2812 39.0625 34.0625 37.0313 34.0625 33.2813C34.0625 29.0625 33.5937 28.125 31.7187 28.75C30.3125 29.375 28.2812 28.9063 27.1875 27.9688C25.4687 26.5625 24.8437 26.875 23.9062 29.0625ZM29.6875 34.5313C29.6875 35.3125 29.0625 35.9375 28.125 35.9375C27.3437 35.9375 26.5625 34.8438 26.5625 33.4375C26.5625 32.1875 27.3437 31.5625 28.125 32.0313C29.0625 32.5 29.6875 33.5938 29.6875 34.5313Z" fill="#027997"/>
<path d="M72.6562 28.125C72.0312 29.0625 70.3125 29.375 68.75 28.9063C66.4062 28.125 65.9375 28.9063 65.9375 33.4375C65.9375 37.0313 66.875 39.0625 68.5938 39.6875C70 40.1563 72.0312 41.0938 73.125 41.5625C74.0625 42.0313 75 41.5625 75 40.4688C75 39.5313 76.25 37.6563 77.8125 36.4063C79.6875 34.8438 80 33.9063 78.5938 33.4375C77.5 32.9688 76.5625 31.5625 76.5625 30.4688C76.5625 27.6563 73.9062 26.0938 72.6562 28.125ZM73.4375 34.375C73.4375 35.1563 72.8125 35.9375 71.875 35.9375C71.0938 35.9375 70.3125 35.1563 70.3125 34.375C70.3125 33.4375 71.0938 32.8125 71.875 32.8125C72.8125 32.8125 73.4375 33.4375 73.4375 34.375Z" fill="#027997"/>
<path d="M45.3125 44.5312C44.2188 45.7812 43.75 48.5938 44.0625 50.7812C44.5312 52.9688 44.375 54.6875 43.5938 54.6875C39.6875 54.6875 37.5 60.1562 37.5 69.6875V79.6875H50H62.5V69.6875C62.5 60.1562 60.3125 54.6875 56.4062 54.6875C55.625 54.6875 55.4688 52.9688 55.9375 50.7812C56.7188 46.25 53.9062 42.1875 50 42.1875C48.4375 42.1875 46.4062 43.2812 45.3125 44.5312ZM52.6562 47.8125C53.9062 51.0938 50.625 54.375 48.2812 52.0312C46.25 50 47.5 45.3125 50 45.3125C50.9375 45.3125 52.0312 46.4062 52.6562 47.8125ZM46.25 62.0312C45.7812 64.6875 46.25 67.6562 47.6562 69.375C50 72.5 50 72.5 52.3438 69.375C53.75 67.5 54.2188 64.6875 53.75 62.0312C52.9688 58.2812 53.2812 57.6562 55.7812 58.125C57.9688 58.5938 58.75 60.3125 59.0625 67.6562L59.5312 76.5625H50H40.625V68.2812C40.625 59.5312 41.25 57.8125 44.8438 57.8125C46.5625 57.8125 46.875 59.0625 46.25 62.0312Z" fill="#027997"/>
</svg>
