<svg width="100" height="100" viewBox="0 0 100 100" fill="none" xmlns="http://www.w3.org/2000/svg">
<path d="M40 7.99999C40 8.99999 38.2 9.99999 35.8 9.99999C33.4 9.99999 31.2 11.6 30.6 14C30 16.2 28.4 18 27.2 18C20.8 18 12.6 57.6 18.2 61C19.2 61.8 19.6 64.2 19 66.6C17.8 71 24 79.2 36.6 89.4C43.2 95 44 95 44 90.4C44 88.4 49.4 81.6 56 75C70.2 60.8 71.4 55.6 61.6 47.6C56.6 43.6 55.6 41.6 57.4 39.8C61.6 35.6 75.6 45.4 78.4 54.4C80.4 61 80 63.6 75.4 75.6C69.6 90.2 68.8 94 72 94C73.2 94 74 92.8 74 91.2C74 89.6 76.2 83.6 79 77.6C83.6 68 84 65.4 82.8 50C82 40.6 80.2 30 78.8 26.2C77.2 22.6 76 16.4 76 12.8C76 8.99999 75.2 5.99999 74 5.99999C71 5.99999 71.6 18.4 75 28C76.6 32.6 78 38.2 78 40.4C78 43.8 77.4 43.8 70.6 39C62.4 33.4 58 32.8 54.4 36.4C50.4 40.4 51.8 45.6 58 50C61.4 52.4 64 55.6 64 57.4C64 61.6 42.4 86 38.8 86C34.4 86 35.4 81.2 41 76C48.8 68.6 46.8 66.8 38.8 74C33.6 78.4 30.8 79.6 29.4 78.2C27.8 76.6 28.6 74.6 32 71C38 64.6 36.2 62.6 29.4 68C23.4 72.8 19.8 69.8 24.8 64.2C29 59.6 28.8 57.6 24.6 58.4C22.4 58.8 21 57.8 21 56C21 54.2 23.2 52.8 26.8 52.4C30.2 52 32.8 50.2 33.4 48C34 46 35.6 43.8 37.2 43.2C38.8 42.6 40 40.4 40 38.2C40 36 41 33.6 42 33C43.2 32.2 44 30.2 43.6 28.4C43.4 26.4 43.8 24 44.4 22.8C46.2 20 44 5.99999 41.8 5.99999C40.8 5.99999 40 6.8 40 7.99999ZM39.8 15.8C41.2 16.8 42 18.6 41.2 19.6C39.4 22.6 34 20.4 34 16.8C34 13.6 35.8 13.2 39.8 15.8ZM35 24.4C40 26.6 41 28.2 38.8 30.6C37 32.2 26 26.4 26 24C26 21.4 28.6 21.4 35 24.4ZM36 38C36 40.8 29.4 40.4 25 37.4C23 35.8 22 33.6 22.8 32.4C24.4 29.6 36 34.8 36 38ZM29.6 45.6C30.2 47.4 29 48.2 25.8 47.6C23.4 47.4 21 45.8 20.4 44.4C19.8 42.6 21 41.8 24.2 42.4C26.6 42.6 29 44.2 29.6 45.6Z" fill="#027997"/>
</svg>
